<?xml version="1.0" standalone="no"?>
<!DOCTYPE svg PUBLIC "-//W3C//DTD SVG 20010904//EN"
 "http://www.w3.org/TR/2001/REC-SVG-20010904/DTD/svg10.dtd">
<svg version="1.0" xmlns="http://www.w3.org/2000/svg"
 width="697.000000pt" height="697.000000pt" viewBox="0 0 697.000000 697.000000"
 preserveAspectRatio="xMidYMid meet">
<metadata>
Created by potrace 1.11, written by Peter Selinger 2001-2013
</metadata>
<g transform="translate(0.000000,697.000000) scale(0.100000,-0.100000)"
fill="#000000" stroke="none">
<path d="M3437 6484 c-1 -1 -55 -4 -119 -8 -65 -4 -124 -8 -130 -11 -7 -2 -37
-6 -67 -10 -30 -3 -86 -12 -125 -20 -39 -8 -82 -16 -96 -19 -14 -2 -45 -9 -70
-16 -25 -7 -52 -14 -60 -15 -50 -11 -275 -86 -325 -109 -16 -8 -61 -28 -100
-44 -302 -132 -584 -329 -840 -586 -272 -273 -475 -598 -607 -975 -11 -31 -21
-63 -23 -71 -2 -8 -13 -51 -25 -95 -12 -44 -23 -89 -25 -100 -39 -186 -54
-340 -55 -590 -1 -151 2 -206 16 -335 4 -30 8 -66 9 -80 3 -23 8 -61 20 -137
35 -220 125 -488 233 -695 55 -106 64 -121 146 -238 241 -344 587 -602 1027
-764 96 -35 249 -82 298 -91 80 -15 86 -19 85 -61 0 -21 -4 -66 -8 -99 -4 -33
-9 -76 -12 -95 -2 -19 -6 -51 -9 -70 -8 -57 -14 -112 -20 -170 -4 -30 -8 -62
-10 -70 -2 -8 -7 -42 -10 -75 -3 -33 -8 -71 -10 -85 -2 -14 -6 -50 -10 -80 -5
-55 -9 -85 -20 -167 -3 -24 -4 -43 -1 -43 3 0 56 25 118 55 62 30 119 55 125
55 7 0 13 3 13 8 0 4 15 14 33 21 47 21 231 108 402 191 83 40 195 94 250 120
336 160 480 229 730 350 105 50 197 93 205 95 85 19 328 111 473 180 241 114
512 301 705 487 268 258 436 498 597 853 68 150 153 447 171 600 3 22 7 51 9
65 24 132 23 476 0 620 -2 14 -7 48 -10 75 -18 137 -102 432 -161 563 -13 29
-24 55 -24 58 0 7 -89 185 -120 239 -27 48 -122 198 -130 205 -3 3 -39 50 -80
105 -134 178 -366 399 -581 553 -356 254 -817 436 -1259 496 -19 3 -51 7 -70
10 -99 14 -442 29 -453 20z m418 -937 c30 -5 141 -27 160 -31 31 -7 108 -30
165 -49 36 -11 67 -22 70 -22 3 -1 22 -9 44 -18 21 -9 41 -17 45 -17 3 0 56
-25 116 -56 109 -55 293 -172 370 -236 69 -57 228 -220 276 -283 52 -69 149
-211 149 -220 0 -3 11 -23 24 -44 14 -21 22 -42 19 -45 -4 -3 -1 -6 6 -6 7 0
9 -4 6 -10 -3 -5 -1 -10 4 -10 6 0 10 -3 9 -7 -1 -7 5 -24 35 -93 6 -14 11
-27 12 -30 3 -14 27 -87 33 -100 3 -8 7 -19 8 -25 1 -5 3 -12 4 -15 1 -3 3
-12 5 -20 1 -8 8 -40 14 -70 6 -30 14 -66 16 -80 26 -126 21 -409 -9 -540 -4
-14 -8 -34 -11 -45 -2 -11 -6 -30 -9 -43 -4 -12 -8 -30 -10 -40 -7 -31 -48
-146 -62 -173 -7 -15 -10 -29 -7 -33 4 -3 1 -6 -5 -6 -7 0 -11 -3 -10 -7 3
-11 -69 -151 -93 -181 -10 -14 -19 -29 -19 -34 0 -5 -5 -14 -10 -21 -6 -7 -39
-51 -74 -98 -74 -99 -224 -253 -311 -319 -33 -25 -62 -48 -65 -51 -8 -9 -168
-108 -220 -136 -62 -33 -221 -104 -242 -108 -9 -2 -26 -9 -37 -15 -12 -6 -21
-8 -21 -4 0 3 -6 1 -13 -5 -8 -6 -24 -13 -38 -15 -13 -3 -25 -5 -26 -7 -2 -1
-6 -2 -10 -4 -5 -1 -21 -5 -38 -10 -27 -7 -42 -16 -100 -61 -32 -24 -567 -423
-593 -442 -13 -9 -40 -29 -60 -45 -19 -15 -37 -26 -39 -23 -3 3 9 90 21 152
10 47 19 100 21 119 1 11 6 38 10 60 29 152 37 206 31 213 -6 6 -21 10 -61 17
-11 2 -21 4 -22 5 -2 2 -6 3 -10 4 -8 2 -119 27 -138 31 -5 1 -30 7 -54 14
-25 7 -54 14 -65 16 -12 1 -28 5 -36 8 -13 5 -73 16 -97 19 -5 0 -17 4 -29 8
-11 5 -38 11 -58 14 -21 3 -46 11 -57 16 -10 6 -19 9 -19 6 0 -3 -24 2 -52 11
-29 8 -57 16 -63 18 -5 1 -17 5 -25 8 -54 20 -116 42 -120 42 -8 0 -184 88
-190 95 -3 3 -27 19 -55 35 -27 15 -52 31 -55 34 -3 3 -25 22 -50 42 -25 20
-65 56 -90 80 -49 48 -160 182 -160 194 0 4 -9 19 -19 33 -17 24 -84 149 -87
162 0 3 -7 19 -14 35 -7 17 -15 38 -17 48 -1 10 -10 31 -18 48 -9 16 -13 29
-10 29 3 0 1 9 -5 20 -6 10 -12 32 -14 47 -3 15 -7 39 -11 53 -4 14 -8 34 -10
45 -2 11 -6 36 -10 55 -16 87 -19 140 -19 360 -1 232 3 289 28 400 3 14 9 39
12 55 3 17 9 35 12 40 4 6 7 15 8 20 4 24 48 141 57 153 5 6 7 12 4 12 -3 0
15 42 40 93 189 384 536 698 964 870 105 43 252 86 310 92 24 3 55 7 69 10 14
3 45 8 70 11 25 3 47 8 49 10 6 6 541 -3 576 -9z"/>
</g>
</svg>
